<svg width="300" height="120" viewBox="0 0 600 240" xmlns="http://www.w3.org/2000/svg" fill="none">
  <style>
    .text { font-family: 'Segoe UI', sans-serif; fill: rgb(58, 59, 119); font-weight: bold; }
  </style>
  <g stroke="rgb(58, 59, 119)" stroke-width="5" fill="none">
    <path d="M60,20c50,0,80,40,80,100s-30,100-80,100c-20,0-20,-30-20,-50s-20,-30,-20,-50s20,-40,20,-60s0,-40,20,-40z"/>
    <rect x="80" y="50" width="60" height="40" rx="8" ry="8" stroke="rgb(58, 59, 119)" fill="none"/>
    <text x="95" y="78" font-size="20" fill="rgb(58, 59, 119)" font-family="Segoe UI" font-weight="bold">AI</text>
    <circle cx="100" cy="90" r="4" fill="rgb(58, 59, 119)" />
    <circle cx="110" cy="100" r="4" fill="rgb(58, 59, 119)" />
    <circle cx="120" cy="90" r="4" fill="rgb(58, 59, 119)" />
    <line x1="100" y1="90" x2="100" y2="100" />
    <line x1="110" y1="90" x2="110" y2="100" />
    <line x1="120" y1="90" x2="120" y2="100" />
  </g>
  <text x="170" y="100" font-size="40" class="text">AI Mock</text>
  <text x="170" y="145" font-size="40" class="text">Interview</text>
</svg>
