
      <svg data-logo="logo" xmlns="http://www.w3.org/2000/svg" viewBox="0 0 287 43">
        <g id="logogram" transform="translate(0, 1) rotate(0)"><path d="M46.9107 40.08H63.0578L23.058 0.0799561H6.91068L46.9107 40.08Z" fill="#7476ED"/><path d="M31.3536 0.0799581L69.9128 38.6391V0.0799561H59.478V12.2538L47.3041 0.0799561L31.3536 0.0799581Z" fill="#E56F8C"/><path d="M0.150879 1.41904V40.0798H10.5857V27.9058L22.7595 40.0798H38.8117L0.150879 1.41904Z" fill="#64C2DB"/></g>
        <g id="logotype" transform="translate(75, 9)"><path fill="#3a3b77" d="M5.42 25L9.41 0.50L14.63 0.50L18.62 25L14.77 25L14.07 20.13L14.07 20.20L9.69 20.20L8.99 25L5.42 25ZM10.14 16.88L13.61 16.88L11.89 4.77L11.83 4.77L10.14 16.88ZM20.47 25L20.47 0.50L24.32 0.50L24.32 25L20.47 25ZM32.79 25L32.79 0.50L38.29 0.50L40.74 18.04L40.81 18.04L43.26 0.50L48.75 0.50L48.75 25L45.11 25L45.11 6.45L45.04 6.45L42.24 25L39.02 25L36.22 6.45L36.15 6.45L36.15 25L32.79 25ZM57.19 25.35Q54.35 25.35 52.84 23.74Q51.34 22.13 51.34 19.19L51.34 19.19L51.34 6.31Q51.34 3.37 52.84 1.76Q54.35 0.15 57.19 0.15L57.19 0.15Q60.02 0.15 61.53 1.76Q63.03 3.37 63.03 6.31L63.03 6.31L63.03 19.19Q63.03 22.13 61.53 23.74Q60.02 25.35 57.19 25.35L57.19 25.35ZM57.19 21.85Q59.18 21.85 59.18 19.43L59.18 19.43L59.18 6.06Q59.18 3.65 57.19 3.65L57.19 3.65Q55.19 3.65 55.19 6.06L55.19 6.06L55.19 19.43Q55.19 21.85 57.19 21.85L57.19 21.85ZM71.05 25.35Q68.28 25.35 66.83 23.77Q65.38 22.20 65.38 19.33L65.38 19.33L65.38 6.17Q65.38 3.30 66.83 1.72Q68.28 0.15 71.05 0.15L71.05 0.15Q73.81 0.15 75.26 1.72Q76.72 3.30 76.72 6.17L76.72 6.17L76.72 8.76L73.08 8.76L73.08 5.92Q73.08 3.65 71.15 3.65L71.15 3.65Q69.23 3.65 69.23 5.92L69.23 5.92L69.23 19.61Q69.23 21.85 71.15 21.85L71.15 21.85Q73.08 21.85 73.08 19.61L73.08 19.61L73.08 15.86L76.72 15.86L76.72 19.33Q76.72 22.20 75.26 23.77Q73.81 25.35 71.05 25.35L71.05 25.35ZM79.03 25L79.03 0.50L82.88 0.50L82.88 10.82L87.78 0.50L91.63 0.50L87.04 9.49L91.70 25L87.67 25L84.42 14.08L82.88 17.20L82.88 25L79.03 25ZM99.12 25L99.12 0.50L102.97 0.50L102.97 25L99.12 25ZM105.84 25L105.84 0.50L110.67 0.50L114.41 15.16L114.48 15.16L114.48 0.50L117.91 0.50L117.91 25L113.96 25L109.34 7.11L109.27 7.11L109.27 25L105.84 25ZM123.79 25L123.79 4.00L119.77 4.00L119.77 0.50L131.67 0.50L131.67 4.00L127.64 4.00L127.64 25L123.79 25ZM133.52 25L133.52 0.50L144.02 0.50L144.02 4.00L137.37 4.00L137.37 10.47L142.66 10.47L142.66 13.97L137.37 13.97L137.37 21.50L144.02 21.50L144.02 25L133.52 25ZM146.23 25L146.23 0.50L151.93 0.50Q154.91 0.50 156.27 1.88Q157.64 3.26 157.64 6.13L157.64 6.13L157.64 7.64Q157.64 11.45 155.12 12.47L155.12 12.47L155.12 12.54Q156.52 12.96 157.09 14.25Q157.67 15.55 157.67 17.72L157.67 17.72L157.67 22.02Q157.67 23.07 157.74 23.72Q157.81 24.37 158.09 25L158.09 25L154.17 25Q153.96 24.41 153.89 23.88Q153.82 23.36 153.82 21.99L153.82 21.99L153.82 17.51Q153.82 15.83 153.28 15.16Q152.74 14.50 151.41 14.50L151.41 14.50L150.08 14.50L150.08 25L146.23 25ZM150.08 11.00L151.48 11.00Q152.63 11.00 153.21 10.40Q153.79 9.81 153.79 8.41L153.79 8.41L153.79 6.52Q153.79 5.19 153.31 4.59Q152.84 4.00 151.83 4.00L151.83 4.00L150.08 4.00L150.08 11.00ZM162.89 25L159.18 0.50L163.06 0.50L165.58 19.50L165.65 19.50L168.17 0.50L171.71 0.50L168.00 25L162.89 25ZM173.56 25L173.56 0.50L177.41 0.50L177.41 25L173.56 25ZM180.28 25L180.28 0.50L190.78 0.50L190.78 4.00L184.13 4.00L184.13 10.47L189.42 10.47L189.42 13.97L184.13 13.97L184.13 21.50L190.78 21.50L190.78 25L180.28 25ZM194.56 25L192.08 0.50L195.79 0.50L197.50 19.33L197.57 19.33L199.39 0.50L203.59 0.50L205.41 19.33L205.48 19.33L207.20 0.50L210.52 0.50L208.04 25L203.24 25L201.49 8.48L201.42 8.48L199.67 25L194.56 25Z"/></g>
        
      </svg>
    